<svg xmlns="http://www.w3.org/2000/svg" viewBox="0 0 1000 600">
    <rect width="1000" height="600" fill="#F6F3EC" />
    <g font-family="sans-serif" text-anchor="middle">
        <!-- CAUSAS (Abajo) -->
        <rect x="50" y="450" width="200" height="60" rx="10" fill="#D8CEB8" />
        <text x="150" y="485" fill="#202420" font-size="14">Escala del viñedo</text>
        
        <rect x="300" y="450" width="200" height="60" rx="10" fill="#D8CEB8" />
        <text x="400" y="485" fill="#202420" font-size="14">Variabilidad espacial</text>
        
        <rect x="550" y="450" width="200" height="60" rx="10" fill="#D8CEB8" />
        <text x="650" y="485" fill="#202420" font-size="14">Presión económica</text>
        
        <rect x="800" y="450" width="150" height="60" rx="10" fill="#D8CEB8" />
        <text x="875" y="485" fill="#202420" font-size="14">Menos personal</text>
        
        <!-- Líneas a problema -->
        <path d="M150,450 L500,340 M400,450 L500,340 M650,450 L500,340 M875,450 L500,340" stroke="#7D8B62" stroke-width="3" />
        
        <!-- PROBLEMA (Centro) -->
        <rect x="200" y="240" width="600" height="100" rx="10" fill="#173126" />
        <text x="500" y="280" fill="#F6F3EC" font-size="16" font-weight="bold">BRECHA ENTRE OBSERVACIÓN REQUERIDA Y</text>
        <text x="500" y="310" fill="#F6F3EC" font-size="16" font-weight="bold">CAPACIDAD DISPONIBLE PARA MANTENERLA</text>
        
        <!-- Líneas a efectos -->
        <path d="M500,240 L300,120 M500,240 L500,120 M500,240 L700,120" stroke="#7D8B62" stroke-width="3" />
        
        <!-- EFECTOS (Arriba) -->
        <rect x="150" y="60" width="300" height="60" rx="10" fill="#6E293B" />
        <text x="300" y="95" fill="#F6F3EC" font-size="14">Anomalías locales sin observar</text>
        
        <rect x="500" y="60" width="350" height="60" rx="10" fill="#6E293B" />
        <text x="675" y="95" fill="#F6F3EC" font-size="14">Dificultad para priorizar y reacción tardía</text>
    </g>
</svg>